<?xml version="1.0" encoding="UTF-8" standalone="no"?>
<svg
   version="1.1"
   x="0px"
   y="0px"
   viewBox="0 0 1000 1000"
   enable-background="new 0 0 1000 1000"
   xml:space="preserve"
   id="svg1"
   sodipodi:docname="eye.svg"
   inkscape:version="1.3 (0e150ed, 2023-07-21)"
   xmlns:inkscape="http://www.inkscape.org/namespaces/inkscape"
   xmlns:sodipodi="http://sodipodi.sourceforge.net/DTD/sodipodi-0.dtd"
   xmlns="http://www.w3.org/2000/svg"
   xmlns:svg="http://www.w3.org/2000/svg"><defs
   id="defs1" /><sodipodi:namedview
   id="namedview1"
   pagecolor="#ffffff"
   bordercolor="#666666"
   borderopacity="1.0"
   inkscape:showpageshadow="2"
   inkscape:pageopacity="0.0"
   inkscape:pagecheckerboard="0"
   inkscape:deskcolor="#d1d1d1"
   inkscape:zoom="0.65084375"
   inkscape:cx="500.12004"
   inkscape:cy="500.88827"
   inkscape:window-width="1280"
   inkscape:window-height="899"
   inkscape:window-x="3595"
   inkscape:window-y="1162"
   inkscape:window-maximized="0"
   inkscape:current-layer="svg1" />&#10;             &#10;         <g
   id="g2"
   style="fill:#0000ff"
   transform="matrix(1.444135,0,0,1.5607974,127.2285,105.96827)">&#10;	<path
   class="st0"
   d="m 481.895,425.096 -100.964,0.178 0.057,32.548 -15.02,0.029 -0.057,-32.548 -102.705,0.187 -0.028,-15.038 210.004,-0.374 -217.967,-376.001 -89.745,156.094 59.733,-0.104 -0.075,-40.09 15.038,-0.028 0.076,40.09 52.611,-0.094 0.018,15.03 -136.047,0.243 -111.034,193.086 57.027,-0.094 -0.065,-37.581 15.038,-0.029 0.075,45.097 c 0.01,1.966 -0.796,3.902 -2.19,5.306 -1.404,1.414 -3.331,2.218 -5.306,2.218 L 37.132,413.352 0,477.923 512,477.024 Z M 229.292,367.469 c -8.581,-3.201 -16.957,-7.926 -25.576,-13.999 -6.082,-4.305 -12.081,-10.004 -17.481,-15.797 -5.4,-5.792 -10.162,-11.659 -13.616,-16.292 -2.311,-3.116 -4.006,-5.596 -5.062,-7.412 -0.281,-0.505 -0.524,-0.954 -0.777,-1.544 -0.13,-0.328 -0.281,-0.665 -0.421,-1.272 -0.065,-0.328 -0.141,-0.721 -0.15,-1.329 0.009,-0.608 0.084,-1.002 0.15,-1.32 l 0.216,-0.758 c 0.14,-0.402 0.262,-0.693 0.402,-0.974 0.253,-0.542 0.524,-1.039 0.852,-1.581 0.646,-1.086 1.478,-2.368 2.536,-3.864 2.078,-2.976 4.959,-6.804 8.394,-10.959 6.869,-8.31 15.768,-17.874 24.808,-24.322 8.6,-6.111 16.957,-10.855 25.52,-14.093 8.572,-3.238 17.331,-4.922 26.502,-4.931 9.171,-0.028 17.949,1.638 26.521,4.838 8.581,3.2 16.956,7.926 25.575,13.999 6.092,4.304 12.082,10.004 17.482,15.796 5.399,5.793 10.153,11.67 13.616,16.292 2.32,3.116 4.005,5.596 5.062,7.412 0.281,0.505 0.533,0.954 0.786,1.553 0.131,0.309 0.271,0.655 0.412,1.273 0.065,0.318 0.14,0.711 0.15,1.32 -0.01,0.608 -0.084,1.001 -0.15,1.329 l -0.216,0.748 c -0.131,0.412 -0.253,0.693 -0.393,0.974 -0.262,0.542 -0.534,1.039 -0.861,1.581 -0.646,1.086 -1.488,2.358 -2.517,3.865 -2.097,2.976 -4.979,6.804 -8.404,10.959 -6.878,8.31 -15.778,17.874 -24.817,24.322 -8.6,6.11 -16.958,10.856 -25.52,14.094 -8.563,3.237 -17.331,4.922 -26.502,4.931 -9.171,0.027 -17.939,-1.639 -26.521,-4.839 z"
   style="fill:#0000ff"
   id="path1-4" />&#10;	<path
   class="st0"
   d="m 298.168,309.589 c -0.037,-23.442 -19.081,-42.43 -42.542,-42.392 -23.46,0.037 -42.429,19.099 -42.392,42.541 0.047,23.452 19.081,42.429 42.541,42.392 23.461,-0.037 42.44,-19.09 42.393,-42.541 z m -42.56,19.792 c -10.894,0 -19.717,-8.825 -19.717,-19.718 0,-10.883 8.824,-19.708 19.717,-19.708 2.143,0 4.192,0.346 6.129,0.973 l -2.77,8.459 c -0.702,2.162 -0.225,4.52 1.273,6.233 1.487,1.704 3.771,2.49 5.998,2.078 l 8.741,-1.61 c 0.215,1.16 0.336,2.35 0.336,3.575 0,10.894 -8.815,19.718 -19.707,19.718 z"
   style="fill:#0000ff"
   id="path2" />&#10;</g></svg>
