         <svg version="1.1" xmlns="http://www.w3.org/2000/svg" xmlns:xlink="http://www.w3.org/1999/xlink" x="0px" y="0px" viewBox="0 0 1000 1000" enable-background="new 0 0 1000 1000" xml:space="preserve">
             <g>
                 <path fill="___COLOR_1___" stroke="#581845" stroke-width="25" d="M500,10c-186.2,0-337,149.2-337,333.2c0,82,100.5,254.8,100.5,254.8L500,990l222.8-392c0,0,114.1-174,114.1-254.8C837,159.1,686.1,10,500,10z" />
                 <path fill="#FFFFFF" stroke="#581845" stroke-width="5" d="M500,514.7c-109.5,0-198.2-87.8-198.2-196c0-108.3,88.8-196,198.2-196c109.5,0,198.2,87.7,198.2,196C698.2,426.9,609.5,514.7,500,514.7z" />
                 <path fill="___COLOR_2___" d="M499.9,132.6l-60.6,105.9l-123.2,22.8l85.8,88.2l-15.6,120l113.6-51.4l113.6,51.4l-15.7-120l85.8-88.2l-123.2-22.8L499.9,132.6z" />
             </g>
         </svg>